<svg version="1" xmlns="http://www.w3.org/2000/svg" width="360" height="360" viewBox="0 0 700 700" preserveAspectRatio="xMinYMin"><path fill="#007DC3" d="M0 700h700V0H0z"/><path fill="white" d="M177 232v-56h-12v22h-16v-22h-11v56h11v-25h16v25zM271 214v-38h-12v41c0 4-3 6-8 6-4 0-7-1-8-4l-1-6v-37h-11v39c0 5 0 7 2 10 3 5 9 8 18 8 12 0 18-6 19-11l1-8zM381 232l-5-56h-14l-8 28-2 9-2-9-7-28h-15l-5 56h11l2-29 1-11 2 10 8 30h10l8-31 3-8v9l2 30h11zM475 232l-17-56h-12l-19 56h12l4-13h16l4 13h12zm-18-23h-11l3-10 2-11 3 10 3 11zM562 232v-56h-11l1 23 1 15-7-16-10-22h-13v56h11v-24l-1-16 8 18 9 22h12zM178 380l-13-22-2-3c7 0 12-7 12-15 0-10-6-17-16-17h-21v57h11v-24l2 1c2 1 3 3 9 13l5 10h13zm-15-40c0 3 0 5-2 6-1 1-3 2-8 2h-4v-15h10c3 1 4 4 4 7zM233 380v-57h-12v57zM321 375v-27h-22l2 10h8v12l-6 2c-4 0-7-1-9-3-3-3-4-8-4-16 0-9 1-15 5-18 2-2 4-3 8-3s8 1 11 4l6-7c-4-4-11-6-17-6s-10 1-14 4c-8 5-12 13-12 25 0 8 2 14 6 20 5 5 11 8 19 8 7 0 13-1 19-5zM406 380v-57h-11v22h-16v-22h-12v57h12v-25h16v25zM489 323h-41v10h14v47h12v-47h13zM567 362c0-8-5-14-14-17l-7-2c-5-1-6-2-6-5 0-4 3-7 8-7 4 0 8 1 13 5l5-9c-5-3-12-5-19-5-12 0-20 7-20 17l3 9c2 3 5 5 11 7l6 1c5 2 7 4 7 8 0 5-3 7-10 7-5 0-10-1-15-4l-4 9c5 3 13 5 19 5 14 0 23-8 23-19zM199 471h-12l-4 21-3 19-3-15-5-25h-12l-5 23-3 18-3-19-5-22h-12l14 57h12l5-23 3-16 2 16 5 23h13l13-57zM294 527l-17-56h-13l-18 56h12l4-13h16l4 13h12zm-19-22h-10a160 160 0 0 0 5-22 1386 1386 0 0 1 5 22zM378 471h-40v10h14v46h11v-46h13zM468 523l-5-7c-4 3-7 3-10 3-5 0-8-2-11-6-1-3-2-7-2-15 0-6 1-11 3-14s6-5 10-5l9 3 5-8c-3-2-9-4-15-4-9 0-17 5-21 13-3 5-4 10-4 17 0 9 2 15 7 20 5 6 11 8 18 8s11-1 16-5zM562 527v-56h-11v22h-16v-22h-12v56h12v-25h16v25z"/></svg>
